Coordinates
version=1
nRows=9
nColumns=24
inDegrees=yes

Units are S.I. units (second, meters, Newtons, ...)
Angles are in degrees.

endheader
time	pelvis_tilt	pelvis_list	pelvis_rotation	pelvis_tx	pelvis_ty	pelvis_tz	hip_flexion_r	hip_adduction_r	hip_rotation_r	knee_angle_r	ankle_angle_r	subtalar_angle_r	mtp_angle_r	hip_flexion_l	hip_adduction_l	hip_rotation_l	knee_angle_l	ankle_angle_l	subtalar_angle_l	mtp_angle_l	lumbar_extension	lumbar_bending	lumbar_rotation
      1.45900000	     -2.48158745	      5.28865179	     -2.59560595	      0.33575513	      1.02272445	      0.26251869	     18.77308215	     -7.58015313	     -5.88230825	    -71.43506826	     -4.29570041	     -3.23050456	      5.38439385	     10.70577142	     10.31667634	      0.25285279	    -10.01768758	      3.80769769	     -9.04918945	      0.56307171	     -0.14704149	     -7.90139362	      3.60032263
      1.46316667	     -2.47634573	      5.18100552	     -2.57371556	      0.34064578	      1.02347085	      0.26237031	     19.46075587	     -7.49392913	     -5.87342078	    -71.39624452	     -3.97446356	     -3.39628866	      5.35410717	     10.21858159	     10.22831025	      0.33779568	     -9.68855045	      3.90970739	     -8.97293921	      0.56181629	     -0.21120150	     -7.79103976	      3.51865789
      1.46733333	     -2.44438419	      5.05945817	     -2.50688711	      0.34548045	      1.02424230	      0.26213382	     20.09490918	     -7.41027621	     -5.91537521	    -71.29874405	     -3.62667373	     -3.50866802	      5.21040436	      9.71247284	     10.13983538	      0.51356369	     -9.38348065	      4.00226042	     -8.96389046	      0.54143702	     -0.37787942	     -7.64781071	      3.20367406
      1.47150000	     -2.43681106	      4.94685420	     -2.46157543	      0.35032174	      1.02493392	      0.26193204	     20.75207030	     -7.32192068	     -5.92893418	    -71.15340828	     -3.31081767	     -3.67014993	      5.18221315	      9.24013689	     10.04991074	      0.60585770	     -9.08499502	      4.09630267	     -8.89755571	      0.53757946	     -0.45645655	     -7.52071274	      3.14207030
      1.47566667	     -2.39849924	      4.80581806	     -2.36659054	      0.35511584	      1.02565646	      0.26163916	     21.34498784	     -7.22212793	     -5.99930624	    -70.93980781	     -3.00730418	     -3.76387189	      5.03126081	      8.73450786	      9.94470415	      0.82727492	     -8.79326028	      4.18906101	     -8.91898827	      0.50479229	     -0.63580160	     -7.34495456	      2.81445570
      1.47983333	     -2.39381929	      4.69151559	     -2.29439576	      0.35990341	      1.02627665	      0.26139356	     21.97587365	     -7.13322024	     -6.02903808	    -70.68986127	     -2.69074333	     -3.89288894	      5.00336955	      8.28087012	      9.85480634	      0.94664582	     -8.51981764	      4.28419277	     -8.85538902	      0.49855322	     -0.71839106	     -7.21818871	      2.75222571
      1.48400000	     -2.34557106	      4.53712078	     -2.17558863	      0.36464006	      1.02695768	      0.26105916	     22.52372403	     -7.02341131	     -6.12279609	    -70.36296423	     -2.37829632	     -3.95844382	      4.93008987	      7.78931983	      9.73371082	      1.16689856	     -8.27441794	      4.39527584	     -8.85049576	      0.47779556	     -0.92751702	     -7.01466902	      2.53257266
      1.48816667	     -2.29056318	      4.41309925	     -2.07363945	      0.36940150	      1.02760389	      0.26075263	     23.05767450	     -6.93902693	     -6.18588143	    -69.99172380	     -2.09531282	     -4.00846585	      4.79774889	      7.27100044	      9.64261800	      1.39998459	     -7.97773684	      4.46641618	     -8.89821656	      0.43314449	     -1.09945118	     -6.87687672	      2.20216643
      1.49233333	     -2.29580946	      4.29354002	     -1.96382352	      0.37414026	      1.02810318	      0.26044941	     23.64678424	     -6.85106467	     -6.24634369	    -69.57776931	     -1.77751146	     -4.10033340	      4.76898723	      6.84947726	      9.54609114	      1.55081358	     -7.74120762	      4.56976638	     -8.84687774	      0.42321547	     -1.17046616	     -6.73974906	      2.12694959
